<svg width="394" height="60" viewBox="0 0 394 60" fill="none" xmlns="http://www.w3.org/2000/svg">
<g clip-path="url(#clip0_17_743)">
<path d="M378.258 0H20.3699L0 60H394L378.258 0Z" fill="#982C1F"/>
<path d="M152.198 19.216L149.702 24.08C149.126 23.6107 148.476 23.2373 147.75 22.96C147.046 22.6613 146.31 22.512 145.542 22.512C145.436 22.512 145.318 22.5227 145.19 22.544C145.062 22.544 144.934 22.5653 144.806 22.608C144.316 22.7147 143.868 22.928 143.462 23.248C143.057 23.568 142.854 23.9947 142.854 24.528C142.854 25.04 143.046 25.456 143.43 25.776C143.814 26.0747 144.23 26.32 144.678 26.512C144.849 26.576 145.009 26.64 145.158 26.704C145.329 26.7467 145.489 26.7893 145.638 26.832L147.238 27.28C148.924 27.792 150.332 28.5387 151.462 29.52C152.614 30.48 153.19 31.9413 153.19 33.904C153.19 33.9893 153.19 34.0747 153.19 34.16C153.19 34.2453 153.19 34.3307 153.19 34.416C153.148 35.5253 152.945 36.6133 152.582 37.68C152.22 38.7253 151.59 39.632 150.694 40.4C149.884 41.104 148.966 41.6267 147.942 41.968C146.918 42.3093 145.873 42.5227 144.806 42.608C144.636 42.608 144.465 42.608 144.294 42.608C144.145 42.6293 143.996 42.64 143.846 42.64C142.332 42.64 140.849 42.4053 139.398 41.936C137.948 41.4453 136.604 40.7733 135.366 39.92L138.054 34.832C138.844 35.536 139.697 36.1333 140.614 36.624C141.553 37.1147 142.556 37.36 143.622 37.36C143.665 37.36 143.708 37.36 143.75 37.36C143.793 37.36 143.836 37.36 143.878 37.36C144.582 37.3173 145.222 37.104 145.798 36.72C146.374 36.3147 146.662 35.7173 146.662 34.928C146.662 34.3307 146.417 33.8507 145.926 33.488C145.457 33.1253 144.924 32.8373 144.326 32.624C144.07 32.5387 143.814 32.464 143.558 32.4C143.302 32.3147 143.068 32.24 142.854 32.176C142.812 32.1547 142.758 32.144 142.694 32.144C142.652 32.1227 142.609 32.1013 142.566 32.08C140.668 31.5467 139.153 30.864 138.022 30.032C136.892 29.2 136.326 27.6427 136.326 25.36C136.326 22.9067 137.105 20.944 138.662 19.472C140.241 18 142.236 17.264 144.646 17.264C145.137 17.264 145.638 17.296 146.15 17.36C146.662 17.4027 147.174 17.488 147.686 17.616C148.497 17.7867 149.286 18.0107 150.054 18.288C150.844 18.5653 151.558 18.8853 152.198 19.248V19.216ZM170.829 17.872H177.101V31.44C177.101 33.0187 176.973 34.544 176.717 36.016C176.482 37.488 175.768 38.8107 174.573 39.984C173.805 40.752 172.888 41.3387 171.821 41.744C170.776 42.128 169.698 42.384 168.589 42.512C168.248 42.5547 167.906 42.5867 167.565 42.608C167.224 42.6293 166.893 42.64 166.573 42.64C166.253 42.64 165.922 42.6293 165.581 42.608C165.24 42.5867 164.898 42.5547 164.557 42.512C163.448 42.384 162.36 42.128 161.293 41.744C160.248 41.3387 159.341 40.752 158.573 39.984C157.378 38.8107 156.653 37.488 156.397 36.016C156.162 34.544 156.045 33.0293 156.045 31.472V17.872H162.317V30.576C162.317 30.7253 162.317 30.864 162.317 30.992C162.317 31.0987 162.317 31.216 162.317 31.344C162.338 32.7947 162.584 34.128 163.053 35.344C163.544 36.56 164.717 37.168 166.573 37.168C168.429 37.168 169.592 36.56 170.061 35.344C170.552 34.128 170.808 32.7947 170.829 31.344C170.829 31.216 170.829 31.0987 170.829 30.992C170.829 30.864 170.829 30.736 170.829 30.608V17.872ZM190.743 42H181.079V17.872H190.039C192.194 17.8933 193.922 18.3733 195.223 19.312C196.546 20.2507 197.207 21.872 197.207 24.176C197.207 25.264 197.005 26.2347 196.599 27.088C196.215 27.9413 195.533 28.6133 194.551 29.104V29.136C196.279 29.3707 197.527 30.0427 198.295 31.152C199.085 32.24 199.479 33.6267 199.479 35.312C199.479 37.8293 198.573 39.5787 196.759 40.56C194.967 41.52 192.962 42 190.743 42ZM187.351 32.016V37.2H188.151C188.173 37.2213 188.194 37.232 188.215 37.232C188.258 37.232 188.301 37.232 188.343 37.232C188.599 37.232 188.866 37.232 189.143 37.232C189.421 37.232 189.698 37.2213 189.975 37.2C190.765 37.136 191.49 36.9333 192.151 36.592C192.813 36.2507 193.143 35.6107 193.143 34.672C193.143 33.584 192.781 32.88 192.055 32.56C191.33 32.24 190.541 32.0693 189.687 32.048C189.495 32.048 189.293 32.048 189.079 32.048C188.887 32.048 188.695 32.048 188.503 32.048C188.418 32.048 188.333 32.048 188.247 32.048C188.162 32.048 188.077 32.048 187.991 32.048L187.351 32.016ZM187.351 22.672V27.344H188.055C188.077 27.3653 188.098 27.376 188.119 27.376C188.162 27.376 188.205 27.376 188.247 27.376C189.037 27.3547 189.762 27.2053 190.423 26.928C191.106 26.6507 191.447 26.0213 191.447 25.04C191.447 24.0587 191.127 23.4293 190.487 23.152C189.847 22.8747 189.154 22.7253 188.407 22.704C188.301 22.704 188.194 22.704 188.087 22.704C188.002 22.704 187.906 22.704 187.799 22.704L187.351 22.672ZM201.296 42L205.391 17.872H211.568L216.464 30.768L221.648 17.872H227.888L231.536 42H225.264L223.504 28.112H223.44L217.648 42H215.152L209.616 28.112H209.552L207.536 42H201.296ZM240.476 17.872V42H234.204V17.872H240.476ZM254.179 23.184V42H247.907V23.184H242.723V17.872H259.363V23.184H254.179Z" fill="white"/>
</g>
<defs>
<clipPath id="clip0_17_743">
<rect width="394" height="60" fill="white"/>
</clipPath>
</defs>
</svg>
