<svg width="394" height="60" viewBox="0 0 394 60" fill="none" xmlns="http://www.w3.org/2000/svg">
<g clip-path="url(#clip0_99_241)">
<path d="M378.258 0H20.3699L0 60H394L378.258 0Z" fill="#982C1F"/>
<path d="M156.617 17.872V36.688H164.137V42H150.345V17.872H156.617ZM178.317 17.072C181.794 17.0933 184.887 18.2667 187.597 20.592C190.306 22.896 191.661 25.872 191.661 29.52C191.661 33.424 190.402 36.6133 187.885 39.088C185.389 41.5627 182.199 42.8 178.317 42.8C174.455 42.8 171.266 41.5627 168.749 39.088C166.231 36.6133 164.973 33.424 164.973 29.52C164.973 25.872 166.327 22.896 169.037 20.592C171.746 18.2667 174.839 17.104 178.317 17.104V17.072ZM178.317 23.152C176.439 23.1733 174.829 23.8347 173.485 25.136C172.162 26.416 171.501 27.888 171.501 29.552C171.501 31.6213 172.162 33.3387 173.485 34.704C174.829 36.0693 176.439 36.752 178.317 36.752C180.194 36.752 181.794 36.0693 183.117 34.704C184.461 33.3387 185.133 31.6213 185.133 29.552C185.133 27.888 184.461 26.416 183.117 25.136C181.794 23.8347 180.194 23.184 178.317 23.184V23.152ZM209.348 37.808H200.708L199.044 42H192.388L201.668 17.872H208.516L217.604 42H210.916L209.348 37.808ZM207.652 33.008L205.092 25.328H205.028L202.436 33.008H207.652ZM219.564 42V17.872H225.836L237.324 32.624H237.388V17.872H243.66V42H237.388L225.9 27.216H225.836V42H219.564Z" fill="white"/>
</g>
<defs>
<clipPath id="clip0_99_241">
<rect width="394" height="60" fill="white"/>
</clipPath>
</defs>
</svg>
