<svg width="394" height="60" viewBox="0 0 394 60" fill="none" xmlns="http://www.w3.org/2000/svg">
<g clip-path="url(#clip0_99_238)">
<path d="M378.258 0H20.3699L0 60H394L378.258 0Z" fill="#982C1F"/>
<path d="M138.028 32.112L145.612 42H137.804L131.884 32.72H131.82V42H125.548V17.872H134.924C137.313 17.8933 139.308 18.5013 140.908 19.696C142.508 20.8693 143.308 22.7467 143.308 25.328C143.308 26.992 142.849 28.4747 141.932 29.776C141.036 31.056 139.735 31.8453 138.028 32.144V32.112ZM131.82 22.672V28.688H132.428C132.535 28.7093 132.641 28.72 132.748 28.72C132.855 28.72 132.951 28.72 133.036 28.72C133.975 28.6773 134.828 28.464 135.596 28.08C136.385 27.6747 136.78 26.8853 136.78 25.712C136.78 24.5387 136.385 23.76 135.596 23.376C134.828 22.9707 133.975 22.7467 133.036 22.704C132.951 22.704 132.855 22.704 132.748 22.704C132.641 22.704 132.535 22.704 132.428 22.704L131.82 22.672ZM161.026 23.184H153.57V27.216H160.642V32.528H153.57V36.688H161.026V42H147.298V17.872H161.026V23.184ZM191.324 42.608L185.564 43.504L183.644 41.232C182.726 41.7867 181.713 42.1813 180.604 42.416C179.516 42.672 178.321 42.8 177.02 42.8C173.158 42.8 169.969 41.5627 167.452 39.088C164.934 36.6133 163.676 33.424 163.676 29.52C163.676 25.872 165.03 22.896 167.74 20.592C170.449 18.2667 173.542 17.104 177.02 17.104C180.774 17.104 183.932 18.2773 186.492 20.624C189.073 22.9707 190.364 26.1067 190.364 30.032C190.364 31.632 190.097 33.136 189.564 34.544C189.03 35.9307 188.262 37.2533 187.26 38.512L191.324 42.608ZM181.02 31.824L182.716 33.584C182.993 33.2213 183.217 32.816 183.388 32.368C183.558 31.92 183.686 31.4613 183.772 30.992C183.793 30.8427 183.804 30.6933 183.804 30.544C183.825 30.3733 183.836 30.2133 183.836 30.064C183.836 28.2507 183.174 26.6507 181.852 25.264C180.55 23.8773 178.95 23.184 177.052 23.184C175.174 23.184 173.564 23.8347 172.22 25.136C170.876 26.416 170.204 27.888 170.204 29.552C170.204 31.6213 170.876 33.3387 172.22 34.704C173.564 36.0693 175.174 36.752 177.052 36.752C177.372 36.752 177.692 36.7307 178.012 36.688C178.332 36.624 178.652 36.5387 178.972 36.432L175.1 32.56L181.02 31.824ZM207.923 17.872H214.195V31.44C214.195 33.0187 214.067 34.544 213.811 36.016C213.576 37.488 212.861 38.8107 211.667 39.984C210.899 40.752 209.981 41.3387 208.915 41.744C207.869 42.128 206.792 42.384 205.683 42.512C205.341 42.5547 205 42.5867 204.659 42.608C204.317 42.6293 203.987 42.64 203.667 42.64C203.347 42.64 203.016 42.6293 202.675 42.608C202.333 42.5867 201.992 42.5547 201.651 42.512C200.541 42.384 199.453 42.128 198.387 41.744C197.341 41.3387 196.435 40.752 195.667 39.984C194.472 38.8107 193.747 37.488 193.491 36.016C193.256 34.544 193.139 33.0293 193.139 31.472V17.872H199.411V30.576C199.411 30.7253 199.411 30.864 199.411 30.992C199.411 31.0987 199.411 31.216 199.411 31.344C199.432 32.7947 199.677 34.128 200.147 35.344C200.637 36.56 201.811 37.168 203.667 37.168C205.523 37.168 206.685 36.56 207.155 35.344C207.645 34.128 207.901 32.7947 207.923 31.344C207.923 31.216 207.923 31.0987 207.923 30.992C207.923 30.864 207.923 30.736 207.923 30.608V17.872ZM231.901 23.184H224.445V27.216H231.517V32.528H224.445V36.688H231.901V42H218.173V17.872H231.901V23.184ZM251.511 19.216L249.015 24.08C248.439 23.6107 247.788 23.2373 247.063 22.96C246.359 22.6613 245.623 22.512 244.855 22.512C244.748 22.512 244.631 22.5227 244.503 22.544C244.375 22.544 244.247 22.5653 244.119 22.608C243.628 22.7147 243.18 22.928 242.775 23.248C242.369 23.568 242.167 23.9947 242.167 24.528C242.167 25.04 242.359 25.456 242.743 25.776C243.127 26.0747 243.543 26.32 243.991 26.512C244.161 26.576 244.321 26.64 244.471 26.704C244.641 26.7467 244.801 26.7893 244.951 26.832L246.551 27.28C248.236 27.792 249.644 28.5387 250.775 29.52C251.927 30.48 252.503 31.9413 252.503 33.904C252.503 33.9893 252.503 34.0747 252.503 34.16C252.503 34.2453 252.503 34.3307 252.503 34.416C252.46 35.5253 252.257 36.6133 251.895 37.68C251.532 38.7253 250.903 39.632 250.007 40.4C249.196 41.104 248.279 41.6267 247.255 41.968C246.231 42.3093 245.185 42.5227 244.119 42.608C243.948 42.608 243.777 42.608 243.607 42.608C243.457 42.6293 243.308 42.64 243.159 42.64C241.644 42.64 240.161 42.4053 238.711 41.936C237.26 41.4453 235.916 40.7733 234.679 39.92L237.367 34.832C238.156 35.536 239.009 36.1333 239.927 36.624C240.865 37.1147 241.868 37.36 242.935 37.36C242.977 37.36 243.02 37.36 243.063 37.36C243.105 37.36 243.148 37.36 243.191 37.36C243.895 37.3173 244.535 37.104 245.111 36.72C245.687 36.3147 245.975 35.7173 245.975 34.928C245.975 34.3307 245.729 33.8507 245.239 33.488C244.769 33.1253 244.236 32.8373 243.639 32.624C243.383 32.5387 243.127 32.464 242.871 32.4C242.615 32.3147 242.38 32.24 242.167 32.176C242.124 32.1547 242.071 32.144 242.007 32.144C241.964 32.1227 241.921 32.1013 241.879 32.08C239.98 31.5467 238.465 30.864 237.335 30.032C236.204 29.2 235.639 27.6427 235.639 25.36C235.639 22.9067 236.417 20.944 237.975 19.472C239.553 18 241.548 17.264 243.959 17.264C244.449 17.264 244.951 17.296 245.463 17.36C245.975 17.4027 246.487 17.488 246.999 17.616C247.809 17.7867 248.599 18.0107 249.367 18.288C250.156 18.5653 250.871 18.8853 251.511 19.248V19.216ZM265.086 23.184V42H258.814V23.184H253.63V17.872H270.27V23.184H265.086Z" fill="white"/>
</g>
<defs>
<clipPath id="clip0_99_238">
<rect width="394" height="60" fill="white"/>
</clipPath>
</defs>
</svg>
