<?xml version="1.0" encoding="UTF-8"?>
<svg id="Layer_1" data-name="Layer 1" xmlns="http://www.w3.org/2000/svg" xmlns:xlink="http://www.w3.org/1999/xlink" viewBox="0 0 960 1760">
  <defs>
    <style>
      .cls-1 {
        fill: none;
      }

      .cls-2 {
        clip-path: url(#clippath);
      }

      .cls-3 {
        fill: #191308;
      }

      .cls-4 {
        clip-path: url(#clippath-1);
      }

      .cls-5 {
        clip-path: url(#clippath-4);
      }

      .cls-6 {
        clip-path: url(#clippath-3);
      }

      .cls-7 {
        clip-path: url(#clippath-2);
      }

      .cls-8 {
        clip-path: url(#clippath-7);
      }

      .cls-9 {
        clip-path: url(#clippath-6);
      }

      .cls-10 {
        clip-path: url(#clippath-5);
      }
    </style>
    <clipPath id="clippath">
      <rect class="cls-1" x="14.89" y="1349.04" width="448.53" height="398.86"/>
    </clipPath>
    <clipPath id="clippath-1">
      <rect class="cls-1" x="14.58" y="901.65" width="448.53" height="398.86"/>
    </clipPath>
    <clipPath id="clippath-2">
      <rect class="cls-1" x="15.49" y="9.44" width="448.53" height="398.86"/>
    </clipPath>
    <clipPath id="clippath-3">
      <rect class="cls-1" x="506.77" y="9.07" width="448.53" height="398.86"/>
    </clipPath>
    <clipPath id="clippath-4">
      <rect class="cls-1" x="511.07" y="901.69" width="448.53" height="398.86"/>
    </clipPath>
    <clipPath id="clippath-5">
      <rect class="cls-1" x="506.93" y="456.99" width="448.53" height="398.86"/>
    </clipPath>
    <clipPath id="clippath-6">
      <rect class="cls-1" x="511.03" y="1348.66" width="448.53" height="398.86"/>
    </clipPath>
    <clipPath id="clippath-7">
      <rect class="cls-1" x="13.93" y="456.64" width="448.53" height="398.86"/>
    </clipPath>
  </defs>
  <g>
    <g class="cls-2">
      <g>
        <polygon class="cls-3" points="21.09 1349.04 14.89 1358.63 21.09 1363.13 27.07 1356.08 21.09 1349.04"/>
        <polygon class="cls-3" points="83.28 1349.04 77.07 1358.63 83.28 1363.13 89.26 1356.08 83.28 1349.04"/>
        <polygon class="cls-3" points="145.46 1349.04 139.26 1358.63 145.46 1363.13 151.44 1356.08 145.46 1349.04"/>
        <polygon class="cls-3" points="207.65 1349.04 201.44 1358.63 207.65 1363.13 213.63 1356.08 207.65 1349.04"/>
        <polygon class="cls-3" points="269.83 1349.04 263.63 1358.63 269.83 1363.13 275.82 1356.08 269.83 1349.04"/>
        <polygon class="cls-3" points="332.02 1349.04 325.82 1358.63 332.02 1363.13 338 1356.08 332.02 1349.04"/>
        <polygon class="cls-3" points="394.21 1349.04 388 1358.63 394.21 1363.13 400.19 1356.08 394.21 1349.04"/>
        <polygon class="cls-3" points="456.39 1349.04 450.19 1358.63 456.39 1363.13 462.37 1356.08 456.39 1349.04"/>
        <polygon class="cls-3" points="21.09 1413.13 14.89 1422.72 21.09 1427.22 27.07 1420.18 21.09 1413.13"/>
        <polygon class="cls-3" points="83.28 1413.13 77.07 1422.72 83.28 1427.22 89.26 1420.18 83.28 1413.13"/>
        <polygon class="cls-3" points="145.46 1413.13 139.26 1422.72 145.46 1427.22 151.44 1420.18 145.46 1413.13"/>
        <polygon class="cls-3" points="207.65 1413.13 201.44 1422.72 207.65 1427.22 213.63 1420.18 207.65 1413.13"/>
        <polygon class="cls-3" points="269.83 1413.13 263.63 1422.72 269.83 1427.22 275.82 1420.18 269.83 1413.13"/>
        <polygon class="cls-3" points="332.02 1413.13 325.82 1422.72 332.02 1427.22 338 1420.18 332.02 1413.13"/>
        <polygon class="cls-3" points="394.21 1413.13 388 1422.72 394.21 1427.22 400.19 1420.18 394.21 1413.13"/>
        <polygon class="cls-3" points="456.39 1413.13 450.19 1422.72 456.39 1427.22 462.37 1420.18 456.39 1413.13"/>
        <polygon class="cls-3" points="21.09 1477.22 14.89 1486.81 21.09 1491.31 27.07 1484.27 21.09 1477.22"/>
        <polygon class="cls-3" points="83.28 1477.22 77.07 1486.81 83.28 1491.31 89.26 1484.27 83.28 1477.22"/>
        <polygon class="cls-3" points="145.46 1477.22 139.26 1486.81 145.46 1491.31 151.44 1484.27 145.46 1477.22"/>
        <polygon class="cls-3" points="207.65 1477.22 201.44 1486.81 207.65 1491.31 213.63 1484.27 207.65 1477.22"/>
        <polygon class="cls-3" points="269.83 1477.22 263.63 1486.81 269.83 1491.31 275.82 1484.27 269.83 1477.22"/>
        <polygon class="cls-3" points="332.02 1477.22 325.82 1486.81 332.02 1491.31 338 1484.27 332.02 1477.22"/>
        <polygon class="cls-3" points="394.21 1477.22 388 1486.81 394.21 1491.31 400.19 1484.27 394.21 1477.22"/>
        <polygon class="cls-3" points="456.39 1477.22 450.19 1486.81 456.39 1491.31 462.37 1484.27 456.39 1477.22"/>
        <polygon class="cls-3" points="21.09 1541.31 14.89 1550.9 21.09 1555.4 27.07 1548.36 21.09 1541.31"/>
        <polygon class="cls-3" points="83.28 1541.31 77.07 1550.9 83.28 1555.4 89.26 1548.36 83.28 1541.31"/>
        <polygon class="cls-3" points="145.46 1541.31 139.26 1550.9 145.46 1555.4 151.44 1548.36 145.46 1541.31"/>
        <polygon class="cls-3" points="207.65 1541.31 201.44 1550.9 207.65 1555.4 213.63 1548.36 207.65 1541.31"/>
        <polygon class="cls-3" points="269.83 1541.31 263.63 1550.9 269.83 1555.4 275.82 1548.36 269.83 1541.31"/>
        <polygon class="cls-3" points="332.02 1541.31 325.82 1550.9 332.02 1555.4 338 1548.36 332.02 1541.31"/>
        <polygon class="cls-3" points="394.21 1541.31 388 1550.9 394.21 1555.4 400.19 1548.36 394.21 1541.31"/>
        <polygon class="cls-3" points="456.39 1541.31 450.19 1550.9 456.39 1555.4 462.37 1548.36 456.39 1541.31"/>
        <polygon class="cls-3" points="21.09 1605.4 14.89 1614.99 21.09 1619.5 27.07 1612.45 21.09 1605.4"/>
        <polygon class="cls-3" points="83.28 1605.4 77.07 1614.99 83.28 1619.5 89.26 1612.45 83.28 1605.4"/>
        <polygon class="cls-3" points="145.46 1605.4 139.26 1614.99 145.46 1619.5 151.44 1612.45 145.46 1605.4"/>
        <polygon class="cls-3" points="207.65 1605.4 201.44 1614.99 207.65 1619.5 213.63 1612.45 207.65 1605.4"/>
        <polygon class="cls-3" points="269.83 1605.4 263.63 1614.99 269.83 1619.5 275.82 1612.45 269.83 1605.4"/>
        <polygon class="cls-3" points="332.02 1605.4 325.82 1614.99 332.02 1619.5 338 1612.45 332.02 1605.4"/>
        <polygon class="cls-3" points="394.21 1605.4 388 1614.99 394.21 1619.5 400.19 1612.45 394.21 1605.4"/>
        <polygon class="cls-3" points="456.39 1605.4 450.19 1614.99 456.39 1619.5 462.37 1612.45 456.39 1605.4"/>
        <polygon class="cls-3" points="21.09 1669.5 14.89 1679.08 21.09 1683.59 27.07 1676.54 21.09 1669.5"/>
        <polygon class="cls-3" points="83.28 1669.5 77.07 1679.08 83.28 1683.59 89.26 1676.54 83.28 1669.5"/>
        <polygon class="cls-3" points="145.46 1669.5 139.26 1679.08 145.46 1683.59 151.44 1676.54 145.46 1669.5"/>
        <polygon class="cls-3" points="207.65 1669.5 201.44 1679.08 207.65 1683.59 213.63 1676.54 207.65 1669.5"/>
        <polygon class="cls-3" points="269.83 1669.5 263.63 1679.08 269.83 1683.59 275.82 1676.54 269.83 1669.5"/>
        <polygon class="cls-3" points="332.02 1669.5 325.82 1679.08 332.02 1683.59 338 1676.54 332.02 1669.5"/>
        <polygon class="cls-3" points="394.21 1669.5 388 1679.08 394.21 1683.59 400.19 1676.54 394.21 1669.5"/>
        <polygon class="cls-3" points="456.39 1669.5 450.19 1679.08 456.39 1683.59 462.37 1676.54 456.39 1669.5"/>
        <polygon class="cls-3" points="21.09 1733.59 14.89 1743.18 21.09 1747.68 27.07 1740.63 21.09 1733.59"/>
        <polygon class="cls-3" points="83.28 1733.59 77.07 1743.18 83.28 1747.68 89.26 1740.63 83.28 1733.59"/>
        <polygon class="cls-3" points="145.46 1733.59 139.26 1743.18 145.46 1747.68 151.44 1740.63 145.46 1733.59"/>
        <polygon class="cls-3" points="207.65 1733.59 201.44 1743.18 207.65 1747.68 213.63 1740.63 207.65 1733.59"/>
        <polygon class="cls-3" points="269.83 1733.59 263.63 1743.18 269.83 1747.68 275.82 1740.63 269.83 1733.59"/>
        <polygon class="cls-3" points="332.02 1733.59 325.82 1743.18 332.02 1747.68 338 1740.63 332.02 1733.59"/>
        <polygon class="cls-3" points="394.21 1733.59 388 1743.18 394.21 1747.68 400.19 1740.63 394.21 1733.59"/>
        <polygon class="cls-3" points="456.39 1733.59 450.19 1743.18 456.39 1747.68 462.37 1740.63 456.39 1733.59"/>
      </g>
    </g>
    <path class="cls-3" d="M249.79,1548.52v-11.84L21.78,1377.42l-6.57,.54v170.57H249.79Zm-192.82-98.73l2.39-.19,82.83,57.85v4.3H56.97v-61.96Z"/>
    <polygon class="cls-3" points="87.8 1642.97 201.76 1642.97 221.28 1620.78 258.32 1642.97 224.24 1653.32 224.98 1665.9 258.32 1674.2 224.24 1688.45 201.69 1671.81 87.8 1668.25 70.05 1683.27 42.68 1671.07 68.94 1662.2 69.31 1648.52 42.68 1636.99 74.51 1625.84 87.8 1642.97"/>
    <path class="cls-3" d="M368.68,1427l15.82,25.27,1.74,121.34-13.25,14.33,9.24,33.76,26.77-.38,9.17-29.27-12.07-18.73,1.06-121.29,12.72-24.2-13.57-28.22-24.53,.35-13.1,27.04Zm32.9,158.53l5.75,16.46-13.23,11.22-12.03-15.18,7.67-14.29,11.84,1.8Zm-.42-172.39l5.75,16.46-13.23,11.22-12.03-15.18,7.67-14.29,11.84,1.8Z"/>
    <polyline class="cls-3" points="214.26 1700.28 196.18 1709.38 196.18 1727.41 207.88 1731.03 376.53 1731.03 405.37 1748.79 446.09 1748.79 469.04 1731 419.67 1730.17 420.1 1706.36 446.52 1706.35 424.86 1688.59 391.99 1689.89 376.53 1699.58"/>
  </g>
  <g>
    <g class="cls-4">
      <g>
        <polygon class="cls-3" points="20.78 901.65 14.58 911.24 20.78 915.74 26.77 908.7 20.78 901.65"/>
        <polygon class="cls-3" points="82.97 901.65 76.77 911.24 82.97 915.74 88.95 908.7 82.97 901.65"/>
        <polygon class="cls-3" points="145.16 901.65 138.95 911.24 145.16 915.74 151.14 908.7 145.16 901.65"/>
        <polygon class="cls-3" points="207.34 901.65 201.14 911.24 207.34 915.74 213.32 908.7 207.34 901.65"/>
        <polygon class="cls-3" points="269.53 901.65 263.32 911.24 269.53 915.74 275.51 908.7 269.53 901.65"/>
        <polygon class="cls-3" points="331.71 901.65 325.51 911.24 331.71 915.74 337.69 908.7 331.71 901.65"/>
        <polygon class="cls-3" points="393.9 901.65 387.69 911.24 393.9 915.74 399.88 908.7 393.9 901.65"/>
        <polygon class="cls-3" points="456.08 901.65 449.88 911.24 456.08 915.74 462.06 908.7 456.08 901.65"/>
        <polygon class="cls-3" points="20.78 965.74 14.58 975.33 20.78 979.83 26.77 972.79 20.78 965.74"/>
        <polygon class="cls-3" points="82.97 965.74 76.77 975.33 82.97 979.83 88.95 972.79 82.97 965.74"/>
        <polygon class="cls-3" points="145.16 965.74 138.95 975.33 145.16 979.83 151.14 972.79 145.16 965.74"/>
        <polygon class="cls-3" points="207.34 965.74 201.14 975.33 207.34 979.83 213.32 972.79 207.34 965.74"/>
        <polygon class="cls-3" points="269.53 965.74 263.32 975.33 269.53 979.83 275.51 972.79 269.53 965.74"/>
        <polygon class="cls-3" points="331.71 965.74 325.51 975.33 331.71 979.83 337.69 972.79 331.71 965.74"/>
        <polygon class="cls-3" points="393.9 965.74 387.69 975.33 393.9 979.83 399.88 972.79 393.9 965.74"/>
        <polygon class="cls-3" points="456.08 965.74 449.88 975.33 456.08 979.83 462.06 972.79 456.08 965.74"/>
        <polygon class="cls-3" points="20.78 1029.83 14.58 1039.42 20.78 1043.92 26.77 1036.88 20.78 1029.83"/>
        <polygon class="cls-3" points="82.97 1029.83 76.77 1039.42 82.97 1043.92 88.95 1036.88 82.97 1029.83"/>
        <polygon class="cls-3" points="145.16 1029.83 138.95 1039.42 145.16 1043.92 151.14 1036.88 145.16 1029.83"/>
        <polygon class="cls-3" points="207.34 1029.83 201.14 1039.42 207.34 1043.92 213.32 1036.88 207.34 1029.83"/>
        <polygon class="cls-3" points="269.53 1029.83 263.32 1039.42 269.53 1043.92 275.51 1036.88 269.53 1029.83"/>
        <polygon class="cls-3" points="331.71 1029.83 325.51 1039.42 331.71 1043.92 337.69 1036.88 331.71 1029.83"/>
        <polygon class="cls-3" points="393.9 1029.83 387.69 1039.42 393.9 1043.92 399.88 1036.88 393.9 1029.83"/>
        <polygon class="cls-3" points="456.08 1029.83 449.88 1039.42 456.08 1043.92 462.06 1036.88 456.08 1029.83"/>
        <polygon class="cls-3" points="20.78 1093.92 14.58 1103.51 20.78 1108.02 26.77 1100.97 20.78 1093.92"/>
        <polygon class="cls-3" points="82.97 1093.92 76.77 1103.51 82.97 1108.02 88.95 1100.97 82.97 1093.92"/>
        <polygon class="cls-3" points="145.16 1093.92 138.95 1103.51 145.16 1108.02 151.14 1100.97 145.16 1093.92"/>
        <polygon class="cls-3" points="207.34 1093.92 201.14 1103.51 207.34 1108.02 213.32 1100.97 207.34 1093.92"/>
        <polygon class="cls-3" points="269.53 1093.92 263.32 1103.51 269.53 1108.02 275.51 1100.97 269.53 1093.92"/>
        <polygon class="cls-3" points="331.71 1093.92 325.51 1103.51 331.71 1108.02 337.69 1100.97 331.71 1093.92"/>
        <polygon class="cls-3" points="393.9 1093.92 387.69 1103.51 393.9 1108.02 399.88 1100.97 393.9 1093.92"/>
        <polygon class="cls-3" points="456.08 1093.92 449.88 1103.51 456.08 1108.02 462.06 1100.97 456.08 1093.92"/>
        <polygon class="cls-3" points="20.78 1158.02 14.58 1167.6 20.78 1172.11 26.77 1165.06 20.78 1158.02"/>
        <polygon class="cls-3" points="82.97 1158.02 76.77 1167.6 82.97 1172.11 88.95 1165.06 82.97 1158.02"/>
        <polygon class="cls-3" points="145.16 1158.02 138.95 1167.6 145.16 1172.11 151.14 1165.06 145.16 1158.02"/>
        <polygon class="cls-3" points="207.34 1158.02 201.14 1167.6 207.34 1172.11 213.32 1165.06 207.34 1158.02"/>
        <polygon class="cls-3" points="269.53 1158.02 263.32 1167.6 269.53 1172.11 275.51 1165.06 269.53 1158.02"/>
        <polygon class="cls-3" points="331.71 1158.02 325.51 1167.6 331.71 1172.11 337.69 1165.06 331.71 1158.02"/>
        <polygon class="cls-3" points="393.9 1158.02 387.69 1167.6 393.9 1172.11 399.88 1165.06 393.9 1158.02"/>
        <polygon class="cls-3" points="456.08 1158.02 449.88 1167.6 456.08 1172.11 462.06 1165.06 456.08 1158.02"/>
        <polygon class="cls-3" points="20.78 1222.11 14.58 1231.7 20.78 1236.2 26.77 1229.15 20.78 1222.11"/>
        <polygon class="cls-3" points="82.97 1222.11 76.77 1231.7 82.97 1236.2 88.95 1229.15 82.97 1222.11"/>
        <polygon class="cls-3" points="145.16 1222.11 138.95 1231.7 145.16 1236.2 151.14 1229.15 145.16 1222.11"/>
        <polygon class="cls-3" points="207.34 1222.11 201.14 1231.7 207.34 1236.2 213.32 1229.15 207.34 1222.11"/>
        <polygon class="cls-3" points="269.53 1222.11 263.32 1231.7 269.53 1236.2 275.51 1229.15 269.53 1222.11"/>
        <polygon class="cls-3" points="331.71 1222.11 325.51 1231.7 331.71 1236.2 337.69 1229.15 331.71 1222.11"/>
        <polygon class="cls-3" points="393.9 1222.11 387.69 1231.7 393.9 1236.2 399.88 1229.15 393.9 1222.11"/>
        <polygon class="cls-3" points="456.08 1222.11 449.88 1231.7 456.08 1236.2 462.06 1229.15 456.08 1222.11"/>
        <polygon class="cls-3" points="20.78 1286.2 14.58 1295.79 20.78 1300.29 26.77 1293.24 20.78 1286.2"/>
        <polygon class="cls-3" points="82.97 1286.2 76.77 1295.79 82.97 1300.29 88.95 1293.24 82.97 1286.2"/>
        <polygon class="cls-3" points="145.16 1286.2 138.95 1295.79 145.16 1300.29 151.14 1293.24 145.16 1286.2"/>
        <polygon class="cls-3" points="207.34 1286.2 201.14 1295.79 207.34 1300.29 213.32 1293.24 207.34 1286.2"/>
        <polygon class="cls-3" points="269.53 1286.2 263.32 1295.79 269.53 1300.29 275.51 1293.24 269.53 1286.2"/>
        <polygon class="cls-3" points="331.71 1286.2 325.51 1295.79 331.71 1300.29 337.69 1293.24 331.71 1286.2"/>
        <polygon class="cls-3" points="393.9 1286.2 387.69 1295.79 393.9 1300.29 399.88 1293.24 393.9 1286.2"/>
        <polygon class="cls-3" points="456.08 1286.2 449.88 1295.79 456.08 1300.29 462.06 1293.24 456.08 1286.2"/>
      </g>
    </g>
    <path class="cls-3" d="M221.22,1089.41v11.84l228.01,159.26,6.57-.54v-170.57H221.22Zm192.82,98.73l-2.39,.19-82.83-57.85v-4.3h85.21v61.96Z"/>
    <polygon class="cls-3" points="212.79 935.58 326.75 935.58 346.28 913.39 383.31 935.58 349.23 945.93 349.97 958.51 383.31 966.81 349.23 981.06 326.68 964.42 212.79 960.86 195.04 975.89 167.67 963.68 193.93 954.81 194.3 941.13 167.67 929.6 199.5 918.46 212.79 935.58"/>
    <polygon class="cls-3" points="108.81 1168.59 108.81 1268.8 105.26 1295.46 137.58 1295.46 132.84 1267.48 131.27 1095.3 144.6 1095.3 155.7 1106.73 160.03 1104.76 145.85 1070.87 127.05 1070.87 127.72 1063.78 110.21 1063.78 109.6 1069.3 89.9 1068.12 70.98 1068.12 72.17 1098.06 91.47 1098.85 109.6 1094.91 108.81 1168.59"/>
    <path class="cls-3" d="M-2.98,1047.6l15.82,25.27,1.74,121.34-13.25,14.33,9.24,33.76,26.77-.38,9.17-29.27-12.07-18.73,1.06-121.29,12.72-24.2-13.57-28.22-24.53,.35-13.1,27.04Zm32.9,158.53l5.75,16.46-13.23,11.22-12.03-15.18,7.67-14.29,11.84,1.8Zm-.42-172.39l5.75,16.46-13.23,11.22-12.03-15.18,7.67-14.29,11.84,1.8Z"/>
  </g>
  <g>
    <g class="cls-7">
      <g>
        <polygon class="cls-3" points="21.7 9.44 15.49 19.03 21.7 23.53 27.68 16.48 21.7 9.44"/>
        <polygon class="cls-3" points="83.88 9.44 77.68 19.03 83.88 23.53 89.86 16.48 83.88 9.44"/>
        <polygon class="cls-3" points="146.07 9.44 139.86 19.03 146.07 23.53 152.05 16.48 146.07 9.44"/>
        <polygon class="cls-3" points="208.25 9.44 202.05 19.03 208.25 23.53 214.24 16.48 208.25 9.44"/>
        <polygon class="cls-3" points="270.44 9.44 264.24 19.03 270.44 23.53 276.42 16.48 270.44 9.44"/>
        <polygon class="cls-3" points="332.63 9.44 326.42 19.03 332.63 23.53 338.61 16.48 332.63 9.44"/>
        <polygon class="cls-3" points="394.81 9.44 388.61 19.03 394.81 23.53 400.79 16.48 394.81 9.44"/>
        <polygon class="cls-3" points="457 9.44 450.79 19.03 457 23.53 462.98 16.48 457 9.44"/>
        <polygon class="cls-3" points="21.7 73.53 15.49 83.12 21.7 87.62 27.68 80.57 21.7 73.53"/>
        <polygon class="cls-3" points="83.88 73.53 77.68 83.12 83.88 87.62 89.86 80.57 83.88 73.53"/>
        <polygon class="cls-3" points="146.07 73.53 139.86 83.12 146.07 87.62 152.05 80.57 146.07 73.53"/>
        <polygon class="cls-3" points="208.25 73.53 202.05 83.12 208.25 87.62 214.24 80.57 208.25 73.53"/>
        <polygon class="cls-3" points="270.44 73.53 264.24 83.12 270.44 87.62 276.42 80.57 270.44 73.53"/>
        <polygon class="cls-3" points="332.63 73.53 326.42 83.12 332.63 87.62 338.61 80.57 332.63 73.53"/>
        <polygon class="cls-3" points="394.81 73.53 388.61 83.12 394.81 87.62 400.79 80.57 394.81 73.53"/>
        <polygon class="cls-3" points="457 73.53 450.79 83.12 457 87.62 462.98 80.57 457 73.53"/>
        <polygon class="cls-3" points="21.7 137.62 15.49 147.21 21.7 151.71 27.68 144.66 21.7 137.62"/>
        <polygon class="cls-3" points="83.88 137.62 77.68 147.21 83.88 151.71 89.86 144.66 83.88 137.62"/>
        <polygon class="cls-3" points="146.07 137.62 139.86 147.21 146.07 151.71 152.05 144.66 146.07 137.62"/>
        <polygon class="cls-3" points="208.25 137.62 202.05 147.21 208.25 151.71 214.24 144.66 208.25 137.62"/>
        <polygon class="cls-3" points="270.44 137.62 264.24 147.21 270.44 151.71 276.42 144.66 270.44 137.62"/>
        <polygon class="cls-3" points="332.63 137.62 326.42 147.21 332.63 151.71 338.61 144.66 332.63 137.62"/>
        <polygon class="cls-3" points="394.81 137.62 388.61 147.21 394.81 151.71 400.79 144.66 394.81 137.62"/>
        <polygon class="cls-3" points="457 137.62 450.79 147.21 457 151.71 462.98 144.66 457 137.62"/>
        <polygon class="cls-3" points="21.7 201.71 15.49 211.3 21.7 215.8 27.68 208.76 21.7 201.71"/>
        <polygon class="cls-3" points="83.88 201.71 77.68 211.3 83.88 215.8 89.86 208.76 83.88 201.71"/>
        <polygon class="cls-3" points="146.07 201.71 139.86 211.3 146.07 215.8 152.05 208.76 146.07 201.71"/>
        <polygon class="cls-3" points="208.25 201.71 202.05 211.3 208.25 215.8 214.24 208.76 208.25 201.71"/>
        <polygon class="cls-3" points="270.44 201.71 264.24 211.3 270.44 215.8 276.42 208.76 270.44 201.71"/>
        <polygon class="cls-3" points="332.63 201.71 326.42 211.3 332.63 215.8 338.61 208.76 332.63 201.71"/>
        <polygon class="cls-3" points="394.81 201.71 388.61 211.3 394.81 215.8 400.79 208.76 394.81 201.71"/>
        <polygon class="cls-3" points="457 201.71 450.79 211.3 457 215.8 462.98 208.76 457 201.71"/>
        <polygon class="cls-3" points="21.7 265.8 15.49 275.39 21.7 279.89 27.68 272.85 21.7 265.8"/>
        <polygon class="cls-3" points="83.88 265.8 77.68 275.39 83.88 279.89 89.86 272.85 83.88 265.8"/>
        <polygon class="cls-3" points="146.07 265.8 139.86 275.39 146.07 279.89 152.05 272.85 146.07 265.8"/>
        <polygon class="cls-3" points="208.25 265.8 202.05 275.39 208.25 279.89 214.24 272.85 208.25 265.8"/>
        <polygon class="cls-3" points="270.44 265.8 264.24 275.39 270.44 279.89 276.42 272.85 270.44 265.8"/>
        <polygon class="cls-3" points="332.63 265.8 326.42 275.39 332.63 279.89 338.61 272.85 332.63 265.8"/>
        <polygon class="cls-3" points="394.81 265.8 388.61 275.39 394.81 279.89 400.79 272.85 394.81 265.8"/>
        <polygon class="cls-3" points="457 265.8 450.79 275.39 457 279.89 462.98 272.85 457 265.8"/>
        <polygon class="cls-3" points="21.7 329.89 15.49 339.48 21.7 343.98 27.68 336.94 21.7 329.89"/>
        <polygon class="cls-3" points="83.88 329.89 77.68 339.48 83.88 343.98 89.86 336.94 83.88 329.89"/>
        <polygon class="cls-3" points="146.07 329.89 139.86 339.48 146.07 343.98 152.05 336.94 146.07 329.89"/>
        <polygon class="cls-3" points="208.25 329.89 202.05 339.48 208.25 343.98 214.24 336.94 208.25 329.89"/>
        <polygon class="cls-3" points="270.44 329.89 264.24 339.48 270.44 343.98 276.42 336.94 270.44 329.89"/>
        <polygon class="cls-3" points="332.63 329.89 326.42 339.48 332.63 343.98 338.61 336.94 332.63 329.89"/>
        <polygon class="cls-3" points="394.81 329.89 388.61 339.48 394.81 343.98 400.79 336.94 394.81 329.89"/>
        <polygon class="cls-3" points="457 329.89 450.79 339.48 457 343.98 462.98 336.94 457 329.89"/>
        <polygon class="cls-3" points="21.7 393.98 15.49 403.57 21.7 408.07 27.68 401.03 21.7 393.98"/>
        <polygon class="cls-3" points="83.88 393.98 77.68 403.57 83.88 408.07 89.86 401.03 83.88 393.98"/>
        <polygon class="cls-3" points="146.07 393.98 139.86 403.57 146.07 408.07 152.05 401.03 146.07 393.98"/>
        <polygon class="cls-3" points="208.25 393.98 202.05 403.57 208.25 408.07 214.24 401.03 208.25 393.98"/>
        <polygon class="cls-3" points="270.44 393.98 264.24 403.57 270.44 408.07 276.42 401.03 270.44 393.98"/>
        <polygon class="cls-3" points="332.63 393.98 326.42 403.57 332.63 408.07 338.61 401.03 332.63 393.98"/>
        <polygon class="cls-3" points="394.81 393.98 388.61 403.57 394.81 408.07 400.79 401.03 394.81 393.98"/>
        <polygon class="cls-3" points="457 393.98 450.79 403.57 457 408.07 462.98 401.03 457 393.98"/>
      </g>
    </g>
    <polyline class="cls-3" points="305.88 270.99 323.95 261.9 323.95 243.87 312.26 240.24 143.61 240.24 114.76 222.48 74.04 222.48 51.1 240.28 100.47 241.11 100.03 264.92 73.62 264.93 95.27 282.69 128.15 281.39 143.61 271.69"/>
    <path class="cls-3" d="M459.9,165.05h-11.84l-159.26,228.01,.54,6.57h170.57V165.05Zm-98.73,192.82l-.19-2.39,57.85-82.83h4.3v85.21h-61.96Z"/>
    <path class="cls-3" d="M182.71,27.56l15.82,25.27,1.74,121.34-13.25,14.33,9.24,33.76,26.77-.38,9.17-29.27-12.07-18.73,1.06-121.29,12.72-24.2L220.34,.16l-24.53,.35-13.1,27.04Zm32.9,158.53l5.75,16.46-13.23,11.22-12.03-15.18,7.67-14.29,11.84,1.8Zm-.42-172.39l5.75,16.46-13.23,11.22-12.03-15.18,7.67-14.29,11.84,1.8Z"/>
    <polygon class="cls-3" points="85.39 367.37 199.36 367.37 218.88 345.18 255.92 367.37 221.84 377.72 222.58 390.29 255.92 398.6 221.84 412.85 199.29 396.21 85.39 392.64 67.65 407.67 40.28 395.47 66.54 386.59 66.91 372.91 40.28 361.39 72.11 350.24 85.39 367.37"/>
  </g>
  <g>
    <g class="cls-6">
      <g>
        <polygon class="cls-3" points="512.98 9.07 506.77 18.66 512.98 23.17 518.96 16.12 512.98 9.07"/>
        <polygon class="cls-3" points="575.16 9.07 568.96 18.66 575.16 23.17 581.14 16.12 575.16 9.07"/>
        <polygon class="cls-3" points="637.35 9.07 631.14 18.66 637.35 23.17 643.33 16.12 637.35 9.07"/>
        <polygon class="cls-3" points="699.53 9.07 693.33 18.66 699.53 23.17 705.51 16.12 699.53 9.07"/>
        <polygon class="cls-3" points="761.72 9.07 755.51 18.66 761.72 23.17 767.7 16.12 761.72 9.07"/>
        <polygon class="cls-3" points="823.9 9.07 817.7 18.66 823.9 23.17 829.89 16.12 823.9 9.07"/>
        <polygon class="cls-3" points="886.09 9.07 879.89 18.66 886.09 23.17 892.07 16.12 886.09 9.07"/>
        <polygon class="cls-3" points="948.28 9.07 942.07 18.66 948.28 23.17 954.26 16.12 948.28 9.07"/>
        <polygon class="cls-3" points="512.98 73.17 506.77 82.75 512.98 87.26 518.96 80.21 512.98 73.17"/>
        <polygon class="cls-3" points="575.16 73.17 568.96 82.75 575.16 87.26 581.14 80.21 575.16 73.17"/>
        <polygon class="cls-3" points="637.35 73.17 631.14 82.75 637.35 87.26 643.33 80.21 637.35 73.17"/>
        <polygon class="cls-3" points="699.53 73.17 693.33 82.75 699.53 87.26 705.51 80.21 699.53 73.17"/>
        <polygon class="cls-3" points="761.72 73.17 755.51 82.75 761.72 87.26 767.7 80.21 761.72 73.17"/>
        <polygon class="cls-3" points="823.9 73.17 817.7 82.75 823.9 87.26 829.89 80.21 823.9 73.17"/>
        <polygon class="cls-3" points="886.09 73.17 879.89 82.75 886.09 87.26 892.07 80.21 886.09 73.17"/>
        <polygon class="cls-3" points="948.28 73.17 942.07 82.75 948.28 87.26 954.26 80.21 948.28 73.17"/>
        <polygon class="cls-3" points="512.98 137.26 506.77 146.85 512.98 151.35 518.96 144.3 512.98 137.26"/>
        <polygon class="cls-3" points="575.16 137.26 568.96 146.85 575.16 151.35 581.14 144.3 575.16 137.26"/>
        <polygon class="cls-3" points="637.35 137.26 631.14 146.85 637.35 151.35 643.33 144.3 637.35 137.26"/>
        <polygon class="cls-3" points="699.53 137.26 693.33 146.85 699.53 151.35 705.51 144.3 699.53 137.26"/>
        <polygon class="cls-3" points="761.72 137.26 755.51 146.85 761.72 151.35 767.7 144.3 761.72 137.26"/>
        <polygon class="cls-3" points="823.9 137.26 817.7 146.85 823.9 151.35 829.89 144.3 823.9 137.26"/>
        <polygon class="cls-3" points="886.09 137.26 879.89 146.85 886.09 151.35 892.07 144.3 886.09 137.26"/>
        <polygon class="cls-3" points="948.28 137.26 942.07 146.85 948.28 151.35 954.26 144.3 948.28 137.26"/>
        <polygon class="cls-3" points="512.98 201.35 506.77 210.94 512.98 215.44 518.96 208.39 512.98 201.35"/>
        <polygon class="cls-3" points="575.16 201.35 568.96 210.94 575.16 215.44 581.14 208.39 575.16 201.35"/>
        <polygon class="cls-3" points="637.35 201.35 631.14 210.94 637.35 215.44 643.33 208.39 637.35 201.35"/>
        <polygon class="cls-3" points="699.53 201.35 693.33 210.94 699.53 215.44 705.51 208.39 699.53 201.35"/>
        <polygon class="cls-3" points="761.72 201.35 755.51 210.94 761.72 215.44 767.7 208.39 761.72 201.35"/>
        <polygon class="cls-3" points="823.9 201.35 817.7 210.94 823.9 215.44 829.89 208.39 823.9 201.35"/>
        <polygon class="cls-3" points="886.09 201.35 879.89 210.94 886.09 215.44 892.07 208.39 886.09 201.35"/>
        <polygon class="cls-3" points="948.28 201.35 942.07 210.94 948.28 215.44 954.26 208.39 948.28 201.35"/>
        <polygon class="cls-3" points="512.98 265.44 506.77 275.03 512.98 279.53 518.96 272.49 512.98 265.44"/>
        <polygon class="cls-3" points="575.16 265.44 568.96 275.03 575.16 279.53 581.14 272.49 575.16 265.44"/>
        <polygon class="cls-3" points="637.35 265.44 631.14 275.03 637.35 279.53 643.33 272.49 637.35 265.44"/>
        <polygon class="cls-3" points="699.53 265.44 693.33 275.03 699.53 279.53 705.51 272.49 699.53 265.44"/>
        <polygon class="cls-3" points="761.72 265.44 755.51 275.03 761.72 279.53 767.7 272.49 761.72 265.44"/>
        <polygon class="cls-3" points="823.9 265.44 817.7 275.03 823.9 279.53 829.89 272.49 823.9 265.44"/>
        <polygon class="cls-3" points="886.09 265.44 879.89 275.03 886.09 279.53 892.07 272.49 886.09 265.44"/>
        <polygon class="cls-3" points="948.28 265.44 942.07 275.03 948.28 279.53 954.26 272.49 948.28 265.44"/>
        <polygon class="cls-3" points="512.98 329.53 506.77 339.12 512.98 343.62 518.96 336.58 512.98 329.53"/>
        <polygon class="cls-3" points="575.16 329.53 568.96 339.12 575.16 343.62 581.14 336.58 575.16 329.53"/>
        <polygon class="cls-3" points="637.35 329.53 631.14 339.12 637.35 343.62 643.33 336.58 637.35 329.53"/>
        <polygon class="cls-3" points="699.53 329.53 693.33 339.12 699.53 343.62 705.51 336.58 699.53 329.53"/>
        <polygon class="cls-3" points="761.72 329.53 755.51 339.12 761.72 343.62 767.7 336.58 761.72 329.53"/>
        <polygon class="cls-3" points="823.9 329.53 817.7 339.12 823.9 343.62 829.89 336.58 823.9 329.53"/>
        <polygon class="cls-3" points="886.09 329.53 879.89 339.12 886.09 343.62 892.07 336.58 886.09 329.53"/>
        <polygon class="cls-3" points="948.28 329.53 942.07 339.12 948.28 343.62 954.26 336.58 948.28 329.53"/>
        <polygon class="cls-3" points="512.98 393.62 506.77 403.21 512.98 407.71 518.96 400.67 512.98 393.62"/>
        <polygon class="cls-3" points="575.16 393.62 568.96 403.21 575.16 407.71 581.14 400.67 575.16 393.62"/>
        <polygon class="cls-3" points="637.35 393.62 631.14 403.21 637.35 407.71 643.33 400.67 637.35 393.62"/>
        <polygon class="cls-3" points="699.53 393.62 693.33 403.21 699.53 407.71 705.51 400.67 699.53 393.62"/>
        <polygon class="cls-3" points="761.72 393.62 755.51 403.21 761.72 407.71 767.7 400.67 761.72 393.62"/>
        <polygon class="cls-3" points="823.9 393.62 817.7 403.21 823.9 407.71 829.89 400.67 823.9 393.62"/>
        <polygon class="cls-3" points="886.09 393.62 879.89 403.21 886.09 407.71 892.07 400.67 886.09 393.62"/>
        <polygon class="cls-3" points="948.28 393.62 942.07 403.21 948.28 407.71 954.26 400.67 948.28 393.62"/>
      </g>
    </g>
    <path class="cls-3" d="M713.41,196.83v11.84l228.01,159.26,6.57-.54V196.83h-234.58Zm192.82,98.73l-2.39,.19-82.83-57.85v-4.3h85.21v61.96Z"/>
    <polygon class="cls-3" points="704.98 43 818.95 43 838.47 20.82 875.5 43 841.43 53.36 842.16 65.93 875.5 74.24 841.43 88.49 818.87 71.85 704.98 68.28 687.23 83.31 659.87 71.11 686.12 62.23 686.49 48.55 659.87 37.03 691.7 25.88 704.98 43"/>
    <polygon class="cls-3" points="601 276.01 601 376.22 597.45 402.88 629.77 402.88 625.03 374.91 623.46 202.73 636.79 202.73 647.89 214.15 652.22 212.18 638.04 178.3 619.24 178.3 619.91 171.21 602.4 171.21 601.79 176.72 582.09 175.54 563.18 175.54 564.36 205.48 583.66 206.27 601.79 202.33 601 276.01"/>
    <path class="cls-3" d="M489.21,155.03l15.82,25.27,1.74,121.34-13.25,14.33,9.24,33.76,26.77-.38,9.17-29.27-12.07-18.73,1.06-121.29,12.72-24.2-13.57-28.22-24.53,.35-13.1,27.04Zm32.9,158.53l5.75,16.46-13.23,11.22-12.03-15.18,7.67-14.29,11.84,1.8Zm-.42-172.39l5.75,16.46-13.23,11.22-12.03-15.18,7.67-14.29,11.84,1.8Z"/>
  </g>
  <g>
    <g class="cls-5">
      <g>
        <polygon class="cls-3" points="517.27 901.69 511.07 911.28 517.27 915.78 523.26 908.74 517.27 901.69"/>
        <polygon class="cls-3" points="579.46 901.69 573.26 911.28 579.46 915.78 585.44 908.74 579.46 901.69"/>
        <polygon class="cls-3" points="641.65 901.69 635.44 911.28 641.65 915.78 647.63 908.74 641.65 901.69"/>
        <polygon class="cls-3" points="703.83 901.69 697.63 911.28 703.83 915.78 709.81 908.74 703.83 901.69"/>
        <polygon class="cls-3" points="766.02 901.69 759.81 911.28 766.02 915.78 772 908.74 766.02 901.69"/>
        <polygon class="cls-3" points="828.2 901.69 822 911.28 828.2 915.78 834.18 908.74 828.2 901.69"/>
        <polygon class="cls-3" points="890.39 901.69 884.18 911.28 890.39 915.78 896.37 908.74 890.39 901.69"/>
        <polygon class="cls-3" points="952.57 901.69 946.37 911.28 952.57 915.78 958.56 908.74 952.57 901.69"/>
        <polygon class="cls-3" points="517.27 965.78 511.07 975.37 517.27 979.87 523.26 972.83 517.27 965.78"/>
        <polygon class="cls-3" points="579.46 965.78 573.26 975.37 579.46 979.87 585.44 972.83 579.46 965.78"/>
        <polygon class="cls-3" points="641.65 965.78 635.44 975.37 641.65 979.87 647.63 972.83 641.65 965.78"/>
        <polygon class="cls-3" points="703.83 965.78 697.63 975.37 703.83 979.87 709.81 972.83 703.83 965.78"/>
        <polygon class="cls-3" points="766.02 965.78 759.81 975.37 766.02 979.87 772 972.83 766.02 965.78"/>
        <polygon class="cls-3" points="828.2 965.78 822 975.37 828.2 979.87 834.18 972.83 828.2 965.78"/>
        <polygon class="cls-3" points="890.39 965.78 884.18 975.37 890.39 979.87 896.37 972.83 890.39 965.78"/>
        <polygon class="cls-3" points="952.57 965.78 946.37 975.37 952.57 979.87 958.56 972.83 952.57 965.78"/>
        <polygon class="cls-3" points="517.27 1029.87 511.07 1039.46 517.27 1043.97 523.26 1036.92 517.27 1029.87"/>
        <polygon class="cls-3" points="579.46 1029.87 573.26 1039.46 579.46 1043.97 585.44 1036.92 579.46 1029.87"/>
        <polygon class="cls-3" points="641.65 1029.87 635.44 1039.46 641.65 1043.97 647.63 1036.92 641.65 1029.87"/>
        <polygon class="cls-3" points="703.83 1029.87 697.63 1039.46 703.83 1043.97 709.81 1036.92 703.83 1029.87"/>
        <polygon class="cls-3" points="766.02 1029.87 759.81 1039.46 766.02 1043.97 772 1036.92 766.02 1029.87"/>
        <polygon class="cls-3" points="828.2 1029.87 822 1039.46 828.2 1043.97 834.18 1036.92 828.2 1029.87"/>
        <polygon class="cls-3" points="890.39 1029.87 884.18 1039.46 890.39 1043.97 896.37 1036.92 890.39 1029.87"/>
        <polygon class="cls-3" points="952.57 1029.87 946.37 1039.46 952.57 1043.97 958.56 1036.92 952.57 1029.87"/>
        <polygon class="cls-3" points="517.27 1093.97 511.07 1103.55 517.27 1108.06 523.26 1101.01 517.27 1093.97"/>
        <polygon class="cls-3" points="579.46 1093.97 573.26 1103.55 579.46 1108.06 585.44 1101.01 579.46 1093.97"/>
        <polygon class="cls-3" points="641.65 1093.97 635.44 1103.55 641.65 1108.06 647.63 1101.01 641.65 1093.97"/>
        <polygon class="cls-3" points="703.83 1093.97 697.63 1103.55 703.83 1108.06 709.81 1101.01 703.83 1093.97"/>
        <polygon class="cls-3" points="766.02 1093.97 759.81 1103.55 766.02 1108.06 772 1101.01 766.02 1093.97"/>
        <polygon class="cls-3" points="828.2 1093.97 822 1103.55 828.2 1108.06 834.18 1101.01 828.2 1093.97"/>
        <polygon class="cls-3" points="890.39 1093.97 884.18 1103.55 890.39 1108.06 896.37 1101.01 890.39 1093.97"/>
        <polygon class="cls-3" points="952.57 1093.97 946.37 1103.55 952.57 1108.06 958.56 1101.01 952.57 1093.97"/>
        <polygon class="cls-3" points="517.27 1158.06 511.07 1167.65 517.27 1172.15 523.26 1165.1 517.27 1158.06"/>
        <polygon class="cls-3" points="579.46 1158.06 573.26 1167.65 579.46 1172.15 585.44 1165.1 579.46 1158.06"/>
        <polygon class="cls-3" points="641.65 1158.06 635.44 1167.65 641.65 1172.15 647.63 1165.1 641.65 1158.06"/>
        <polygon class="cls-3" points="703.83 1158.06 697.63 1167.65 703.83 1172.15 709.81 1165.1 703.83 1158.06"/>
        <polygon class="cls-3" points="766.02 1158.06 759.81 1167.65 766.02 1172.15 772 1165.1 766.02 1158.06"/>
        <polygon class="cls-3" points="828.2 1158.06 822 1167.65 828.2 1172.15 834.18 1165.1 828.2 1158.06"/>
        <polygon class="cls-3" points="890.39 1158.06 884.18 1167.65 890.39 1172.15 896.37 1165.1 890.39 1158.06"/>
        <polygon class="cls-3" points="952.57 1158.06 946.37 1167.65 952.57 1172.15 958.56 1165.1 952.57 1158.06"/>
        <polygon class="cls-3" points="517.27 1222.15 511.07 1231.74 517.27 1236.24 523.26 1229.19 517.27 1222.15"/>
        <polygon class="cls-3" points="579.46 1222.15 573.26 1231.74 579.46 1236.24 585.44 1229.19 579.46 1222.15"/>
        <polygon class="cls-3" points="641.65 1222.15 635.44 1231.74 641.65 1236.24 647.63 1229.19 641.65 1222.15"/>
        <polygon class="cls-3" points="703.83 1222.15 697.63 1231.74 703.83 1236.24 709.81 1229.19 703.83 1222.15"/>
        <polygon class="cls-3" points="766.02 1222.15 759.81 1231.74 766.02 1236.24 772 1229.19 766.02 1222.15"/>
        <polygon class="cls-3" points="828.2 1222.15 822 1231.74 828.2 1236.24 834.18 1229.19 828.2 1222.15"/>
        <polygon class="cls-3" points="890.39 1222.15 884.18 1231.74 890.39 1236.24 896.37 1229.19 890.39 1222.15"/>
        <polygon class="cls-3" points="952.57 1222.15 946.37 1231.74 952.57 1236.24 958.56 1229.19 952.57 1222.15"/>
        <polygon class="cls-3" points="517.27 1286.24 511.07 1295.83 517.27 1300.33 523.26 1293.28 517.27 1286.24"/>
        <polygon class="cls-3" points="579.46 1286.24 573.26 1295.83 579.46 1300.33 585.44 1293.28 579.46 1286.24"/>
        <polygon class="cls-3" points="641.65 1286.24 635.44 1295.83 641.65 1300.33 647.63 1293.28 641.65 1286.24"/>
        <polygon class="cls-3" points="703.83 1286.24 697.63 1295.83 703.83 1300.33 709.81 1293.28 703.83 1286.24"/>
        <polygon class="cls-3" points="766.02 1286.24 759.81 1295.83 766.02 1300.33 772 1293.28 766.02 1286.24"/>
        <polygon class="cls-3" points="828.2 1286.24 822 1295.83 828.2 1300.33 834.18 1293.28 828.2 1286.24"/>
        <polygon class="cls-3" points="890.39 1286.24 884.18 1295.83 890.39 1300.33 896.37 1293.28 890.39 1286.24"/>
        <polygon class="cls-3" points="952.57 1286.24 946.37 1295.83 952.57 1300.33 958.56 1293.28 952.57 1286.24"/>
      </g>
    </g>
    <path class="cls-3" d="M618.43,1045.25l15.82,25.27,1.74,121.34-13.25,14.33,9.24,33.76,26.77-.38,9.17-29.27-12.07-18.73,1.06-121.29,12.72-24.2-13.57-28.22-24.53,.35-13.1,27.04Zm32.9,158.53l5.75,16.46-13.23,11.22-12.03-15.18,7.67-14.29,11.84,1.8Zm-.42-172.39l5.75,16.46-13.23,11.22-12.03-15.18,7.67-14.29,11.84,1.8Z"/>
    <polygon class="cls-3" points="591.84 1084.56 591.84 1198.53 614.02 1218.05 591.84 1255.09 581.48 1221.01 568.91 1221.75 560.61 1255.09 546.35 1221.01 562.99 1198.45 566.56 1084.56 551.53 1066.81 563.73 1039.45 572.61 1065.71 586.29 1066.07 597.81 1039.45 608.96 1071.28 591.84 1084.56"/>
    <polyline class="cls-3" points="816.39 963.31 834.46 954.21 834.46 936.18 822.77 932.56 654.12 932.56 625.27 914.8 584.55 914.8 561.61 932.59 610.98 933.42 610.55 957.23 584.13 957.24 605.78 975 638.66 973.7 654.12 964.01"/>
    <polygon class="cls-3" points="849.71 1104.75 849.71 1204.96 846.16 1231.62 878.48 1231.62 873.74 1203.65 872.17 1031.47 885.49 1031.47 896.59 1042.89 900.93 1040.92 886.74 1007.04 867.95 1007.04 868.62 999.95 851.1 999.95 850.49 1005.46 830.79 1004.28 811.88 1004.28 813.06 1034.22 832.37 1035.01 850.49 1031.07 849.71 1104.75"/>
  </g>
  <g>
    <g class="cls-10">
      <g>
        <polygon class="cls-3" points="513.13 456.99 506.93 466.57 513.13 471.08 519.11 464.03 513.13 456.99"/>
        <polygon class="cls-3" points="575.32 456.99 569.11 466.57 575.32 471.08 581.3 464.03 575.32 456.99"/>
        <polygon class="cls-3" points="637.5 456.99 631.3 466.57 637.5 471.08 643.49 464.03 637.5 456.99"/>
        <polygon class="cls-3" points="699.69 456.99 693.49 466.57 699.69 471.08 705.67 464.03 699.69 456.99"/>
        <polygon class="cls-3" points="761.88 456.99 755.67 466.57 761.88 471.08 767.86 464.03 761.88 456.99"/>
        <polygon class="cls-3" points="824.06 456.99 817.86 466.57 824.06 471.08 830.04 464.03 824.06 456.99"/>
        <polygon class="cls-3" points="886.25 456.99 880.04 466.57 886.25 471.08 892.23 464.03 886.25 456.99"/>
        <polygon class="cls-3" points="948.43 456.99 942.23 466.57 948.43 471.08 954.41 464.03 948.43 456.99"/>
        <polygon class="cls-3" points="513.13 521.08 506.93 530.67 513.13 535.17 519.11 528.12 513.13 521.08"/>
        <polygon class="cls-3" points="575.32 521.08 569.11 530.67 575.32 535.17 581.3 528.12 575.32 521.08"/>
        <polygon class="cls-3" points="637.5 521.08 631.3 530.67 637.5 535.17 643.49 528.12 637.5 521.08"/>
        <polygon class="cls-3" points="699.69 521.08 693.49 530.67 699.69 535.17 705.67 528.12 699.69 521.08"/>
        <polygon class="cls-3" points="761.88 521.08 755.67 530.67 761.88 535.17 767.86 528.12 761.88 521.08"/>
        <polygon class="cls-3" points="824.06 521.08 817.86 530.67 824.06 535.17 830.04 528.12 824.06 521.08"/>
        <polygon class="cls-3" points="886.25 521.08 880.04 530.67 886.25 535.17 892.23 528.12 886.25 521.08"/>
        <polygon class="cls-3" points="948.43 521.08 942.23 530.67 948.43 535.17 954.41 528.12 948.43 521.08"/>
        <polygon class="cls-3" points="513.13 585.17 506.93 594.76 513.13 599.26 519.11 592.21 513.13 585.17"/>
        <polygon class="cls-3" points="575.32 585.17 569.11 594.76 575.32 599.26 581.3 592.21 575.32 585.17"/>
        <polygon class="cls-3" points="637.5 585.17 631.3 594.76 637.5 599.26 643.49 592.21 637.5 585.17"/>
        <polygon class="cls-3" points="699.69 585.17 693.49 594.76 699.69 599.26 705.67 592.21 699.69 585.17"/>
        <polygon class="cls-3" points="761.88 585.17 755.67 594.76 761.88 599.26 767.86 592.21 761.88 585.17"/>
        <polygon class="cls-3" points="824.06 585.17 817.86 594.76 824.06 599.26 830.04 592.21 824.06 585.17"/>
        <polygon class="cls-3" points="886.25 585.17 880.04 594.76 886.25 599.26 892.23 592.21 886.25 585.17"/>
        <polygon class="cls-3" points="948.43 585.17 942.23 594.76 948.43 599.26 954.41 592.21 948.43 585.17"/>
        <polygon class="cls-3" points="513.13 649.26 506.93 658.85 513.13 663.35 519.11 656.31 513.13 649.26"/>
        <polygon class="cls-3" points="575.32 649.26 569.11 658.85 575.32 663.35 581.3 656.31 575.32 649.26"/>
        <polygon class="cls-3" points="637.5 649.26 631.3 658.85 637.5 663.35 643.49 656.31 637.5 649.26"/>
        <polygon class="cls-3" points="699.69 649.26 693.49 658.85 699.69 663.35 705.67 656.31 699.69 649.26"/>
        <polygon class="cls-3" points="761.88 649.26 755.67 658.85 761.88 663.35 767.86 656.31 761.88 649.26"/>
        <polygon class="cls-3" points="824.06 649.26 817.86 658.85 824.06 663.35 830.04 656.31 824.06 649.26"/>
        <polygon class="cls-3" points="886.25 649.26 880.04 658.85 886.25 663.35 892.23 656.31 886.25 649.26"/>
        <polygon class="cls-3" points="948.43 649.26 942.23 658.85 948.43 663.35 954.41 656.31 948.43 649.26"/>
        <polygon class="cls-3" points="513.13 713.35 506.93 722.94 513.13 727.44 519.11 720.4 513.13 713.35"/>
        <polygon class="cls-3" points="575.32 713.35 569.11 722.94 575.32 727.44 581.3 720.4 575.32 713.35"/>
        <polygon class="cls-3" points="637.5 713.35 631.3 722.94 637.5 727.44 643.49 720.4 637.5 713.35"/>
        <polygon class="cls-3" points="699.69 713.35 693.49 722.94 699.69 727.44 705.67 720.4 699.69 713.35"/>
        <polygon class="cls-3" points="761.88 713.35 755.67 722.94 761.88 727.44 767.86 720.4 761.88 713.35"/>
        <polygon class="cls-3" points="824.06 713.35 817.86 722.94 824.06 727.44 830.04 720.4 824.06 713.35"/>
        <polygon class="cls-3" points="886.25 713.35 880.04 722.94 886.25 727.44 892.23 720.4 886.25 713.35"/>
        <polygon class="cls-3" points="948.43 713.35 942.23 722.94 948.43 727.44 954.41 720.4 948.43 713.35"/>
        <polygon class="cls-3" points="513.13 777.44 506.93 787.03 513.13 791.53 519.11 784.49 513.13 777.44"/>
        <polygon class="cls-3" points="575.32 777.44 569.11 787.03 575.32 791.53 581.3 784.49 575.32 777.44"/>
        <polygon class="cls-3" points="637.5 777.44 631.3 787.03 637.5 791.53 643.49 784.49 637.5 777.44"/>
        <polygon class="cls-3" points="699.69 777.44 693.49 787.03 699.69 791.53 705.67 784.49 699.69 777.44"/>
        <polygon class="cls-3" points="761.88 777.44 755.67 787.03 761.88 791.53 767.86 784.49 761.88 777.44"/>
        <polygon class="cls-3" points="824.06 777.44 817.86 787.03 824.06 791.53 830.04 784.49 824.06 777.44"/>
        <polygon class="cls-3" points="886.25 777.44 880.04 787.03 886.25 791.53 892.23 784.49 886.25 777.44"/>
        <polygon class="cls-3" points="948.43 777.44 942.23 787.03 948.43 791.53 954.41 784.49 948.43 777.44"/>
        <polygon class="cls-3" points="513.13 841.53 506.93 851.12 513.13 855.62 519.11 848.58 513.13 841.53"/>
        <polygon class="cls-3" points="575.32 841.53 569.11 851.12 575.32 855.62 581.3 848.58 575.32 841.53"/>
        <polygon class="cls-3" points="637.5 841.53 631.3 851.12 637.5 855.62 643.49 848.58 637.5 841.53"/>
        <polygon class="cls-3" points="699.69 841.53 693.49 851.12 699.69 855.62 705.67 848.58 699.69 841.53"/>
        <polygon class="cls-3" points="761.88 841.53 755.67 851.12 761.88 855.62 767.86 848.58 761.88 841.53"/>
        <polygon class="cls-3" points="824.06 841.53 817.86 851.12 824.06 855.62 830.04 848.58 824.06 841.53"/>
        <polygon class="cls-3" points="886.25 841.53 880.04 851.12 886.25 855.62 892.23 848.58 886.25 841.53"/>
        <polygon class="cls-3" points="948.43 841.53 942.23 851.12 948.43 855.62 954.41 848.58 948.43 841.53"/>
      </g>
    </g>
    <path class="cls-3" d="M614.29,600.54l15.82,25.27,1.74,121.34-13.25,14.33,9.24,33.76,26.77-.38,9.17-29.27-12.07-18.73,1.06-121.29,12.72-24.2-13.57-28.22-24.53,.35-13.1,27.04Zm32.9,158.53l5.75,16.46-13.23,11.22-12.03-15.18,7.67-14.29,11.84,1.8Zm-.42-172.39l5.75,16.46-13.23,11.22-12.03-15.18,7.67-14.29,11.84,1.8Z"/>
    <polygon class="cls-3" points="587.69 639.86 587.69 753.83 609.88 773.35 587.69 810.38 577.34 776.31 564.77 777.05 556.46 810.38 542.21 776.31 558.85 753.75 562.42 639.86 547.39 622.11 559.59 594.75 568.47 621 582.15 621.37 593.67 594.75 604.82 626.58 587.69 639.86"/>
    <polyline class="cls-3" points="812.25 518.6 830.32 509.51 830.32 491.48 818.63 487.85 649.98 487.85 621.13 470.09 580.41 470.09 557.47 487.89 606.84 488.72 606.4 512.53 579.99 512.54 601.64 530.3 634.52 529 649.98 519.3"/>
    <polygon class="cls-3" points="845.57 660.05 845.57 760.26 842.02 786.92 874.33 786.92 869.6 758.94 868.02 586.76 881.35 586.76 892.45 598.19 896.79 596.22 882.6 562.33 863.81 562.33 864.48 555.24 846.96 555.24 846.35 560.76 826.65 559.57 807.74 559.57 808.92 589.52 828.23 590.31 846.35 586.37 845.57 660.05"/>
  </g>
  <g class="cls-9">
    <g>
      <polygon class="cls-3" points="517.23 1348.66 511.03 1358.25 517.23 1362.75 523.21 1355.7 517.23 1348.66"/>
      <polygon class="cls-3" points="579.42 1348.66 573.21 1358.25 579.42 1362.75 585.4 1355.7 579.42 1348.66"/>
      <polygon class="cls-3" points="641.6 1348.66 635.4 1358.25 641.6 1362.75 647.59 1355.7 641.6 1348.66"/>
      <polygon class="cls-3" points="703.79 1348.66 697.59 1358.25 703.79 1362.75 709.77 1355.7 703.79 1348.66"/>
      <polygon class="cls-3" points="765.98 1348.66 759.77 1358.25 765.98 1362.75 771.96 1355.7 765.98 1348.66"/>
      <polygon class="cls-3" points="828.16 1348.66 821.96 1358.25 828.16 1362.75 834.14 1355.7 828.16 1348.66"/>
      <polygon class="cls-3" points="890.35 1348.66 884.14 1358.25 890.35 1362.75 896.33 1355.7 890.35 1348.66"/>
      <polygon class="cls-3" points="952.53 1348.66 946.33 1358.25 952.53 1362.75 958.51 1355.7 952.53 1348.66"/>
      <polygon class="cls-3" points="517.23 1412.75 511.03 1422.34 517.23 1426.84 523.21 1419.79 517.23 1412.75"/>
      <polygon class="cls-3" points="579.42 1412.75 573.21 1422.34 579.42 1426.84 585.4 1419.79 579.42 1412.75"/>
      <polygon class="cls-3" points="641.6 1412.75 635.4 1422.34 641.6 1426.84 647.59 1419.79 641.6 1412.75"/>
      <polygon class="cls-3" points="703.79 1412.75 697.59 1422.34 703.79 1426.84 709.77 1419.79 703.79 1412.75"/>
      <polygon class="cls-3" points="765.98 1412.75 759.77 1422.34 765.98 1426.84 771.96 1419.79 765.98 1412.75"/>
      <polygon class="cls-3" points="828.16 1412.75 821.96 1422.34 828.16 1426.84 834.14 1419.79 828.16 1412.75"/>
      <polygon class="cls-3" points="890.35 1412.75 884.14 1422.34 890.35 1426.84 896.33 1419.79 890.35 1412.75"/>
      <polygon class="cls-3" points="952.53 1412.75 946.33 1422.34 952.53 1426.84 958.51 1419.79 952.53 1412.75"/>
      <polygon class="cls-3" points="517.23 1476.84 511.03 1486.43 517.23 1490.93 523.21 1483.89 517.23 1476.84"/>
      <polygon class="cls-3" points="579.42 1476.84 573.21 1486.43 579.42 1490.93 585.4 1483.89 579.42 1476.84"/>
      <polygon class="cls-3" points="641.6 1476.84 635.4 1486.43 641.6 1490.93 647.59 1483.89 641.6 1476.84"/>
      <polygon class="cls-3" points="703.79 1476.84 697.59 1486.43 703.79 1490.93 709.77 1483.89 703.79 1476.84"/>
      <polygon class="cls-3" points="765.98 1476.84 759.77 1486.43 765.98 1490.93 771.96 1483.89 765.98 1476.84"/>
      <polygon class="cls-3" points="828.16 1476.84 821.96 1486.43 828.16 1490.93 834.14 1483.89 828.16 1476.84"/>
      <polygon class="cls-3" points="890.35 1476.84 884.14 1486.43 890.35 1490.93 896.33 1483.89 890.35 1476.84"/>
      <polygon class="cls-3" points="952.53 1476.84 946.33 1486.43 952.53 1490.93 958.51 1483.89 952.53 1476.84"/>
      <polygon class="cls-3" points="517.23 1540.93 511.03 1550.52 517.23 1555.02 523.21 1547.98 517.23 1540.93"/>
      <polygon class="cls-3" points="579.42 1540.93 573.21 1550.52 579.42 1555.02 585.4 1547.98 579.42 1540.93"/>
      <polygon class="cls-3" points="641.6 1540.93 635.4 1550.52 641.6 1555.02 647.59 1547.98 641.6 1540.93"/>
      <polygon class="cls-3" points="703.79 1540.93 697.59 1550.52 703.79 1555.02 709.77 1547.98 703.79 1540.93"/>
      <polygon class="cls-3" points="765.98 1540.93 759.77 1550.52 765.98 1555.02 771.96 1547.98 765.98 1540.93"/>
      <polygon class="cls-3" points="828.16 1540.93 821.96 1550.52 828.16 1555.02 834.14 1547.98 828.16 1540.93"/>
      <polygon class="cls-3" points="890.35 1540.93 884.14 1550.52 890.35 1555.02 896.33 1547.98 890.35 1540.93"/>
      <polygon class="cls-3" points="952.53 1540.93 946.33 1550.52 952.53 1555.02 958.51 1547.98 952.53 1540.93"/>
      <polygon class="cls-3" points="517.23 1605.02 511.03 1614.61 517.23 1619.11 523.21 1612.07 517.23 1605.02"/>
      <polygon class="cls-3" points="579.42 1605.02 573.21 1614.61 579.42 1619.11 585.4 1612.07 579.42 1605.02"/>
      <polygon class="cls-3" points="641.6 1605.02 635.4 1614.61 641.6 1619.11 647.59 1612.07 641.6 1605.02"/>
      <polygon class="cls-3" points="703.79 1605.02 697.59 1614.61 703.79 1619.11 709.77 1612.07 703.79 1605.02"/>
      <polygon class="cls-3" points="765.98 1605.02 759.77 1614.61 765.98 1619.11 771.96 1612.07 765.98 1605.02"/>
      <polygon class="cls-3" points="828.16 1605.02 821.96 1614.61 828.16 1619.11 834.14 1612.07 828.16 1605.02"/>
      <polygon class="cls-3" points="890.35 1605.02 884.14 1614.61 890.35 1619.11 896.33 1612.07 890.35 1605.02"/>
      <polygon class="cls-3" points="952.53 1605.02 946.33 1614.61 952.53 1619.11 958.51 1612.07 952.53 1605.02"/>
      <polygon class="cls-3" points="517.23 1669.11 511.03 1678.7 517.23 1683.2 523.21 1676.16 517.23 1669.11"/>
      <polygon class="cls-3" points="579.42 1669.11 573.21 1678.7 579.42 1683.2 585.4 1676.16 579.42 1669.11"/>
      <polygon class="cls-3" points="641.6 1669.11 635.4 1678.7 641.6 1683.2 647.59 1676.16 641.6 1669.11"/>
      <polygon class="cls-3" points="703.79 1669.11 697.59 1678.7 703.79 1683.2 709.77 1676.16 703.79 1669.11"/>
      <polygon class="cls-3" points="765.98 1669.11 759.77 1678.7 765.98 1683.2 771.96 1676.16 765.98 1669.11"/>
      <polygon class="cls-3" points="828.16 1669.11 821.96 1678.7 828.16 1683.2 834.14 1676.16 828.16 1669.11"/>
      <polygon class="cls-3" points="890.35 1669.11 884.14 1678.7 890.35 1683.2 896.33 1676.16 890.35 1669.11"/>
      <polygon class="cls-3" points="952.53 1669.11 946.33 1678.7 952.53 1683.2 958.51 1676.16 952.53 1669.11"/>
      <polygon class="cls-3" points="517.23 1733.2 511.03 1742.79 517.23 1747.3 523.21 1740.25 517.23 1733.2"/>
      <polygon class="cls-3" points="579.42 1733.2 573.21 1742.79 579.42 1747.3 585.4 1740.25 579.42 1733.2"/>
      <polygon class="cls-3" points="641.6 1733.2 635.4 1742.79 641.6 1747.3 647.59 1740.25 641.6 1733.2"/>
      <polygon class="cls-3" points="703.79 1733.2 697.59 1742.79 703.79 1747.3 709.77 1740.25 703.79 1733.2"/>
      <polygon class="cls-3" points="765.98 1733.2 759.77 1742.79 765.98 1747.3 771.96 1740.25 765.98 1733.2"/>
      <polygon class="cls-3" points="828.16 1733.2 821.96 1742.79 828.16 1747.3 834.14 1740.25 828.16 1733.2"/>
      <polygon class="cls-3" points="890.35 1733.2 884.14 1742.79 890.35 1747.3 896.33 1740.25 890.35 1733.2"/>
      <polygon class="cls-3" points="952.53 1733.2 946.33 1742.79 952.53 1747.3 958.51 1740.25 952.53 1733.2"/>
    </g>
  </g>
  <g class="cls-8">
    <g>
      <polygon class="cls-3" points="20.13 456.64 13.93 466.23 20.13 470.73 26.12 463.69 20.13 456.64"/>
      <polygon class="cls-3" points="82.32 456.64 76.12 466.23 82.32 470.73 88.3 463.69 82.32 456.64"/>
      <polygon class="cls-3" points="144.51 456.64 138.3 466.23 144.51 470.73 150.49 463.69 144.51 456.64"/>
      <polygon class="cls-3" points="206.69 456.64 200.49 466.23 206.69 470.73 212.67 463.69 206.69 456.64"/>
      <polygon class="cls-3" points="268.88 456.64 262.67 466.23 268.88 470.73 274.86 463.69 268.88 456.64"/>
      <polygon class="cls-3" points="331.06 456.64 324.86 466.23 331.06 470.73 337.04 463.69 331.06 456.64"/>
      <polygon class="cls-3" points="393.25 456.64 387.04 466.23 393.25 470.73 399.23 463.69 393.25 456.64"/>
      <polygon class="cls-3" points="455.43 456.64 449.23 466.23 455.43 470.73 461.41 463.69 455.43 456.64"/>
      <polygon class="cls-3" points="20.13 520.73 13.93 530.32 20.13 534.83 26.12 527.78 20.13 520.73"/>
      <polygon class="cls-3" points="82.32 520.73 76.12 530.32 82.32 534.83 88.3 527.78 82.32 520.73"/>
      <polygon class="cls-3" points="144.51 520.73 138.3 530.32 144.51 534.83 150.49 527.78 144.51 520.73"/>
      <polygon class="cls-3" points="206.69 520.73 200.49 530.32 206.69 534.83 212.67 527.78 206.69 520.73"/>
      <polygon class="cls-3" points="268.88 520.73 262.67 530.32 268.88 534.83 274.86 527.78 268.88 520.73"/>
      <polygon class="cls-3" points="331.06 520.73 324.86 530.32 331.06 534.83 337.04 527.78 331.06 520.73"/>
      <polygon class="cls-3" points="393.25 520.73 387.04 530.32 393.25 534.83 399.23 527.78 393.25 520.73"/>
      <polygon class="cls-3" points="455.43 520.73 449.23 530.32 455.43 534.83 461.41 527.78 455.43 520.73"/>
      <polygon class="cls-3" points="20.13 584.83 13.93 594.41 20.13 598.92 26.12 591.87 20.13 584.83"/>
      <polygon class="cls-3" points="82.32 584.83 76.12 594.41 82.32 598.92 88.3 591.87 82.32 584.83"/>
      <polygon class="cls-3" points="144.51 584.83 138.3 594.41 144.51 598.92 150.49 591.87 144.51 584.83"/>
      <polygon class="cls-3" points="206.69 584.83 200.49 594.41 206.69 598.92 212.67 591.87 206.69 584.83"/>
      <polygon class="cls-3" points="268.88 584.83 262.67 594.41 268.88 598.92 274.86 591.87 268.88 584.83"/>
      <polygon class="cls-3" points="331.06 584.83 324.86 594.41 331.06 598.92 337.04 591.87 331.06 584.83"/>
      <polygon class="cls-3" points="393.25 584.83 387.04 594.41 393.25 598.92 399.23 591.87 393.25 584.83"/>
      <polygon class="cls-3" points="455.43 584.83 449.23 594.41 455.43 598.92 461.41 591.87 455.43 584.83"/>
      <polygon class="cls-3" points="20.13 648.92 13.93 658.51 20.13 663.01 26.12 655.96 20.13 648.92"/>
      <polygon class="cls-3" points="82.32 648.92 76.12 658.51 82.32 663.01 88.3 655.96 82.32 648.92"/>
      <polygon class="cls-3" points="144.51 648.92 138.3 658.51 144.51 663.01 150.49 655.96 144.51 648.92"/>
      <polygon class="cls-3" points="206.69 648.92 200.49 658.51 206.69 663.01 212.67 655.96 206.69 648.92"/>
      <polygon class="cls-3" points="268.88 648.92 262.67 658.51 268.88 663.01 274.86 655.96 268.88 648.92"/>
      <polygon class="cls-3" points="331.06 648.92 324.86 658.51 331.06 663.01 337.04 655.96 331.06 648.92"/>
      <polygon class="cls-3" points="393.25 648.92 387.04 658.51 393.25 663.01 399.23 655.96 393.25 648.92"/>
      <polygon class="cls-3" points="455.43 648.92 449.23 658.51 455.43 663.01 461.41 655.96 455.43 648.92"/>
      <polygon class="cls-3" points="20.13 713.01 13.93 722.6 20.13 727.1 26.12 720.05 20.13 713.01"/>
      <polygon class="cls-3" points="82.32 713.01 76.12 722.6 82.32 727.1 88.3 720.05 82.32 713.01"/>
      <polygon class="cls-3" points="144.51 713.01 138.3 722.6 144.51 727.1 150.49 720.05 144.51 713.01"/>
      <polygon class="cls-3" points="206.69 713.01 200.49 722.6 206.69 727.1 212.67 720.05 206.69 713.01"/>
      <polygon class="cls-3" points="268.88 713.01 262.67 722.6 268.88 727.1 274.86 720.05 268.88 713.01"/>
      <polygon class="cls-3" points="331.06 713.01 324.86 722.6 331.06 727.1 337.04 720.05 331.06 713.01"/>
      <polygon class="cls-3" points="393.25 713.01 387.04 722.6 393.25 727.1 399.23 720.05 393.25 713.01"/>
      <polygon class="cls-3" points="455.43 713.01 449.23 722.6 455.43 727.1 461.41 720.05 455.43 713.01"/>
      <polygon class="cls-3" points="20.13 777.1 13.93 786.69 20.13 791.19 26.12 784.15 20.13 777.1"/>
      <polygon class="cls-3" points="82.32 777.1 76.12 786.69 82.32 791.19 88.3 784.15 82.32 777.1"/>
      <polygon class="cls-3" points="144.51 777.1 138.3 786.69 144.51 791.19 150.49 784.15 144.51 777.1"/>
      <polygon class="cls-3" points="206.69 777.1 200.49 786.69 206.69 791.19 212.67 784.15 206.69 777.1"/>
      <polygon class="cls-3" points="268.88 777.1 262.67 786.69 268.88 791.19 274.86 784.15 268.88 777.1"/>
      <polygon class="cls-3" points="331.06 777.1 324.86 786.69 331.06 791.19 337.04 784.15 331.06 777.1"/>
      <polygon class="cls-3" points="393.25 777.1 387.04 786.69 393.25 791.19 399.23 784.15 393.25 777.1"/>
      <polygon class="cls-3" points="455.43 777.1 449.23 786.69 455.43 791.19 461.41 784.15 455.43 777.1"/>
      <polygon class="cls-3" points="20.13 841.19 13.93 850.78 20.13 855.28 26.12 848.24 20.13 841.19"/>
      <polygon class="cls-3" points="82.32 841.19 76.12 850.78 82.32 855.28 88.3 848.24 82.32 841.19"/>
      <polygon class="cls-3" points="144.51 841.19 138.3 850.78 144.51 855.28 150.49 848.24 144.51 841.19"/>
      <polygon class="cls-3" points="206.69 841.19 200.49 850.78 206.69 855.28 212.67 848.24 206.69 841.19"/>
      <polygon class="cls-3" points="268.88 841.19 262.67 850.78 268.88 855.28 274.86 848.24 268.88 841.19"/>
      <polygon class="cls-3" points="331.06 841.19 324.86 850.78 331.06 855.28 337.04 848.24 331.06 841.19"/>
      <polygon class="cls-3" points="393.25 841.19 387.04 850.78 393.25 855.28 399.23 848.24 393.25 841.19"/>
      <polygon class="cls-3" points="455.43 841.19 449.23 850.78 455.43 855.28 461.41 848.24 455.43 841.19"/>
    </g>
  </g>
</svg>