<?xml version="1.0" encoding="UTF-8"?>
<svg id="Layer_1" data-name="Layer 1" xmlns="http://www.w3.org/2000/svg" viewBox="0 0 1130 1100">
  <defs>
    <style>
      .cls-1 {
        fill: #ecebe4;
      }

      .cls-2 {
        fill: #982c1f;
      }

      .cls-3 {
        fill: #c1452d;
      }
    </style>
  </defs>
  <path class="cls-2" d="M423.44,475.13v151.12h126.52v-151.12h-126.52Zm84.92,116.81l-38.66-9.81v-63.74l36.9-6.54,1.76,80.08Z"/>
  <path class="cls-2" d="M567.49,475.14v151.12h126.52v-151.12h-126.52Zm84.92,116.81l-35.78-10.01-2.88-63.53,34.04,2.77,4.62,70.77Z"/>
  <polygon class="cls-3" points="276.99 386.32 276.99 487.59 350.48 462.76 276.99 623.14 406.3 626.24 406.3 464.09 451.49 464.09 451.49 386.32 276.99 386.32"/>
  <polyline class="cls-3" points="705.94 624.7 858.26 626.32 858.26 549.88 778.53 549.88 858.13 386.32 705.44 386.39 705.44 548.55"/>
  <polygon class="cls-1" points="361.12 324.34 361.12 355.44 470.18 348.93 470.18 462.66 517.05 463.34 515.49 348.53 535.62 348.53 535.62 324.34 361.12 324.34"/>
  <polygon class="cls-1" points="523.16 359.83 524.71 463.34 548.64 463.34 547.08 414.16 567.72 414.96 569.27 463.34 590.15 463.34 585.58 324 563.32 324 564.53 396.14 544.97 395.67 544.97 353.6 523.16 359.83"/>
  <polyline class="cls-1" points="595.12 347.31 596.68 463 627.96 463 626.4 348.19 775.55 355.98 775.55 324 594.82 324.34"/>
  <polygon class="cls-1" points="597.94 411.25 597.35 462.75 682.07 464.22 680.51 410.83 597.94 411.25"/>
  <polygon class="cls-1" points="599.27 370.96 597.35 387.12 661.82 387.88 661.82 370.74 599.27 370.96"/>
  <path class="cls-3" d="M423.44,635.46v137.25h271.09v-137.25H423.44Zm181.95,106.09l-91.6-3.81,8.77-62.98,73.81,8.45,9.02,58.34Z"/>
  <path class="cls-3" d="M276.99,631.25v72.17h118.06v-72.17h-118.06Zm79.45,42.6l-36.28,8.49v-30.44l34.43-3.12,1.85,25.06Z"/>
  <path class="cls-3" d="M277.05,699.88v72.17h133.93v-72.17h-133.93Zm89.89,55.78l-40.92-4.68v-30.44l39.06-3.12,1.86,38.24Z"/>
  <polygon class="cls-3" points="708.56 635.6 766.5 635.6 778.53 668.82 789.38 637.16 852.96 637.16 832.07 704.15 858.13 772.71 801.06 772.71 780.23 732.2 766.5 772.71 711.9 772.71 731.43 701.04 708.56 635.6"/>
</svg>