<?xml version="1.0" encoding="UTF-8"?>
<svg id="Layer_1" data-name="Layer 1" xmlns="http://www.w3.org/2000/svg" viewBox="0 0 1130 1100">
  <defs>
    <style>
      .cls-1 {
        fill: #ecebe4;
      }
     
    </style>
  </defs>
  <polygon class="cls-1" points="395.42 505.5 703.63 505.5 756.42 445.5 856.58 505.5 764.42 533.5 766.42 567.5 856.58 589.96 764.42 628.5 703.42 583.5 395.42 573.86 347.42 614.5 273.42 581.5 344.42 557.5 345.42 520.5 273.42 489.34 359.5 459.19 395.42 505.5"/>
  <polygon class="cls-1" points="273.42 355.62 273.42 391.37 295.7 415.56 545.47 415.56 551.9 402.3 563.03 420.86 563.03 329.61 549.67 343.95 536.3 324.5 291.53 324.5 273.42 355.62"/>
  <polygon class="cls-1" points="569.72 352.03 569.72 386.45 812.66 386.45 824.8 396.51 856.42 377.98 856.42 359.45 831.48 337.21 809.2 349.91 569.72 352.03"/>
  <path class="cls-1" d="M785.42,645.5l-64.74,39.26H412.47l-35.92-34.16-86.08,22.24v67.99l74,24.34,48-29.98,308,7.11,61,33.2,72.15-33.43v-62.31l-68.2-34.26Zm-403.8,77.77l-42,14-28-34,39-30,36,20-5,30Zm437.8,5.23l-42,14-28-34,39-30,36,20-5,30Z"/>
</svg>