<?xml version="1.0" encoding="UTF-8"?>
<svg id="Layer_1" data-name="Layer 1" xmlns="http://www.w3.org/2000/svg" viewBox="0 0 1130 1100">
  <defs>
    <style>
      .cls-1 {
        fill: #ecebe4;
      }
    </style>
  </defs>
  <path class="cls-1" d="M419.73,476.22v152.26h127.47v-152.26h-127.47Zm85.56,117.69l-38.95-9.88v-64.22l37.18-6.59,1.77,80.68Z"/>
  <path class="cls-1" d="M564.86,476.23v152.26h127.47v-152.26h-127.47Zm85.56,117.69l-36.05-10.09-2.9-64.01,34.3,2.79,4.65,71.31Z"/>
  <polygon class="cls-1" points="272.17 386.74 272.17 488.78 346.22 463.76 272.17 625.35 402.46 628.48 402.46 465.09 447.98 465.09 447.98 386.74 272.17 386.74"/>
  <polygon class="cls-1" points="777.5 551.53 857.7 386.74 703.86 386.81 703.86 550.2 704.36 626.92 857.83 628.55 857.83 551.53 777.5 551.53"/>
  <polygon class="cls-1" points="356.94 324.29 356.94 355.63 466.82 349.07 466.82 463.66 514.04 464.35 512.47 348.66 532.75 348.66 532.75 324.29 356.94 324.29"/>
  <polygon class="cls-1" points="520.19 360.06 521.76 464.35 545.87 464.35 544.3 414.79 565.09 415.6 566.66 464.35 587.69 464.35 583.09 323.95 560.66 323.95 561.88 396.63 542.17 396.16 542.17 353.78 520.19 360.06"/>
  <polygon class="cls-1" points="774.5 356.17 774.5 323.95 592.4 324.29 592.7 347.44 594.27 464 609.41 464 680.31 465.23 678.74 411.44 625.08 411.71 624.76 387.9 659.9 388.31 659.9 371.04 624.53 371.17 624.22 348.32 774.5 356.17"/>
  <path class="cls-1" d="M419.73,637.76v138.29h273.14v-138.29H419.73Zm183.33,106.89l-92.29-3.84,8.83-63.46,74.37,8.52,9.09,58.78Z"/>
  <path class="cls-1" d="M391.12,702.67v-69.14h-118.96v72.71h.06v69.14h134.94v-72.71h-16.05Zm-75.46-48.33l34.69-3.15,1.86,25.25-36.56,8.56v-30.67Zm5.91,99.81v-30.67l39.36-3.15,1.87,38.53-41.23-4.72Z"/>
  <polygon class="cls-1" points="707 637.91 765.38 637.91 777.5 671.37 788.43 639.48 852.5 639.48 831.45 706.98 857.7 776.05 800.2 776.05 779.21 735.23 765.38 776.05 710.36 776.05 730.04 703.84 707 637.91"/>
</svg>