<svg width="382" height="553" viewBox="0 0 382 553" fill="none" xmlns="http://www.w3.org/2000/svg">
<path d="M232.327 168.919L173.88 256.302L180.88 282.646L144.874 299.667L154.414 268.226L144.393 262.35L120.928 283.651L127.479 250.21L151.803 241.451L212.947 155.956L210.529 134.639L233.916 119.912L227.257 144.594L237.557 151.897L260.048 137.391L252.267 167.517L232.327 168.919Z" fill="#191308"/>
<path fill-rule="evenodd" clip-rule="evenodd" d="M202.5 551.5L1 238.5C1 -78.5 381 -78.5 381 238.5L202.5 551.5ZM191 333C267.215 333 329 273.454 329 200C329 126.546 267.215 67 191 67C114.785 67 53 126.546 53 200C53 273.454 114.785 333 191 333Z" fill="#982C1F"/>
<path d="M1 238.5H0.5V238.647L0.579585 238.771L1 238.5ZM202.5 551.5L202.08 551.771L202.526 552.464L202.934 551.748L202.5 551.5ZM381 238.5L381.434 238.748L381.5 238.633V238.5H381ZM0.579585 238.771L202.08 551.771L202.92 551.229L1.42041 238.229L0.579585 238.771ZM381.5 238.5C381.5 79.7752 286.325 0.25 191 0.25C95.6751 0.25 0.5 79.7752 0.5 238.5H1.5C1.5 80.2248 96.3249 1.25 191 1.25C285.675 1.25 380.5 80.2248 380.5 238.5H381.5ZM202.934 551.748L381.434 238.748L380.566 238.252L202.066 551.252L202.934 551.748ZM328.5 200C328.5 273.16 266.957 332.5 191 332.5V333.5C267.474 333.5 329.5 273.747 329.5 200H328.5ZM191 67.5C266.957 67.5 328.5 126.84 328.5 200H329.5C329.5 126.253 267.474 66.5 191 66.5V67.5ZM53.5 200C53.5 126.84 115.043 67.5 191 67.5V66.5C114.526 66.5 52.5 126.253 52.5 200H53.5ZM191 332.5C115.043 332.5 53.5 273.16 53.5 200H52.5C52.5 273.747 114.526 333.5 191 333.5V332.5Z" fill="black"/>
</svg>
